<svg width="32" height="134" viewBox="0 0 32 134" fill="none" xmlns="http://www.w3.org/2000/svg">
<path d="M6.99988 13.266L15.2619 8.472V4.902L6.99988 4.902V0.21L30.7999 0.21V9.73C30.7999 11.9287 30.0292 13.7987 28.4879 15.34C26.9465 16.8813 25.0879 17.652 22.9119 17.652C21.4385 17.652 20.0672 17.2327 18.7979 16.394C17.5512 15.5553 16.6105 14.4447 15.9759 13.062L6.99988 18.332V13.266ZM26.4139 4.902L19.3759 4.902V9.73C19.3759 10.614 19.7159 11.3733 20.3959 12.008C21.0985 12.6427 21.9372 12.96 22.9119 12.96C23.8865 12.96 24.7139 12.6427 25.3939 12.008C26.0739 11.3733 26.4139 10.614 26.4139 9.73V4.902ZM6.52388 29.8028C6.52388 27.1508 7.27188 24.9748 8.76788 23.2748C10.2639 21.5748 12.2699 20.7248 14.7859 20.7248H30.7999V25.3828H15.1599C13.9132 25.3828 12.9272 25.7341 12.2019 26.4368C11.4765 27.1621 11.1139 28.2841 11.1139 29.8028C11.1139 31.3214 11.4765 32.4321 12.2019 33.1348C12.9272 33.8601 13.9132 34.2228 15.1599 34.2228H30.7999V38.9148H14.7859C12.2699 38.9148 10.2639 38.0648 8.76788 36.3648C7.27188 34.6648 6.52388 32.4774 6.52388 29.8028Z" fill="#828282"/>
<path d="M0.199878 51.6416H31.4799V56.0276H0.199878L0.199878 51.6416ZM11.4879 73.6325V83.6625H6.99988V68.9405H30.7999L30.7999 83.4925H26.3119L26.3119 73.6325H21.2459V82.6425H16.8259V73.6325H11.4879ZM30.7999 100.74V105.432H6.99988V101.862L21.5519 91.6618H6.99988V86.9698H30.7999V90.5398L16.2819 100.74H30.7999ZM19.7839 133.205H17.9479C14.5479 133.205 11.7939 132.117 9.68588 129.941C7.57788 127.765 6.52388 124.954 6.52388 121.509C6.52388 117.837 7.71388 114.788 10.0939 112.363C12.4965 109.96 15.4205 108.759 18.8659 108.759C22.3339 108.759 25.2692 109.949 27.6719 112.329C30.0745 114.731 31.2759 117.701 31.2759 121.237C31.2759 123.458 30.7659 125.487 29.7459 127.323C28.7485 129.159 27.4112 130.587 25.7339 131.607L23.4219 127.595C24.3965 127.028 25.1899 126.167 25.8019 125.011C26.4139 123.877 26.7199 122.608 26.7199 121.203C26.7199 118.936 25.9719 117.066 24.4759 115.593C23.0025 114.142 21.1325 113.417 18.8659 113.417C16.6219 113.417 14.7632 114.153 13.2899 115.627C11.8392 117.123 11.1139 119.095 11.1139 121.543C11.1139 123.356 11.5105 124.852 12.3039 126.031C13.1199 127.232 14.2305 128.048 15.6359 128.479V121.271H19.7839V133.205Z" fill="black"/>
</svg>
