<svg width="22" height="20" viewBox="0 0 22 20" fill="none" xmlns="http://www.w3.org/2000/svg">
<path d="M9.89021 0.85958C10.1901 -0.0606967 11.492 -0.0606959 11.7918 0.859581L13.5429 6.23398C13.677 6.64561 14.0608 6.92418 14.4937 6.92418H20.1545C21.1239 6.92418 21.5262 8.16521 20.7412 8.73398L16.1663 12.0486C15.8149 12.3033 15.6678 12.7555 15.8022 13.1682L17.5508 18.5349C17.8508 19.4557 16.7975 20.2227 16.0133 19.6544L11.4277 16.3321C11.0777 16.0784 10.6043 16.0784 10.2543 16.3321L5.66875 19.6544C4.88449 20.2227 3.8312 19.4557 4.13123 18.5348L5.8798 13.1682C6.01425 12.7555 5.86717 12.3033 5.51571 12.0486L0.940841 8.73398C0.155834 8.16521 0.558165 6.92418 1.52756 6.92418H7.18832C7.62124 6.92418 8.005 6.64561 8.13912 6.23398L9.89021 0.85958Z" fill="#070707"/>
</svg>
